<?xml version="1.0" encoding="UTF-8" standalone="no"?>
<!DOCTYPE svg PUBLIC "-//W3C//DTD SVG 1.1//EN"
 "http://www.w3.org/Graphics/SVG/1.1/DTD/svg11.dtd">
<!-- Generated by graphviz version 2.28.0 (20121003.1643)
 -->
<!-- Title: G Pages: 1 -->
<svg width="358pt" height="421pt"
 viewBox="0.00 0.00 358.00 421.00" xmlns="http://www.w3.org/2000/svg" xmlns:xlink="http://www.w3.org/1999/xlink">
<g id="graph1" class="graph" transform="scale(1 1) rotate(0) translate(4 417)">
<title>G</title>
<polygon fill="white" stroke="white" points="-4,5 -4,-417 355,-417 355,5 -4,5"/>
<g id="graph2" class="cluster"><title>cluster_CarmaLink</title>
<polyline fill="none" stroke="gray" points="182,-8 330,-8 "/>
<path fill="none" stroke="gray" d="M330,-8C336,-8 342,-14 342,-20"/>
<polyline fill="none" stroke="gray" points="342,-20 342,-393 "/>
<path fill="none" stroke="gray" d="M342,-393C342,-399 336,-405 330,-405"/>
<polyline fill="none" stroke="gray" points="330,-405 182,-405 "/>
<path fill="none" stroke="gray" d="M182,-405C176,-405 170,-399 170,-393"/>
<polyline fill="none" stroke="gray" points="170,-393 170,-20 "/>
<path fill="none" stroke="gray" d="M170,-20C170,-14 176,-8 182,-8"/>
<text text-anchor="middle" x="256" y="-390" font-family="Times,serif" font-size="11.00" fill="gray">CarmaLink</text>
</g>
<!-- \\CarmaLink\\CarmaLink -->
<g id="node2" class="node"><title>\\CarmaLink\\CarmaLink</title>
<a xlink:href="CarmaLinkAPI.html" xlink:title="«abstract»&lt;br/&gt;CarmaLink" target="_parent">
<polygon fill="none" stroke="black" points="297.5,-376 214.5,-376 214.5,-340 297.5,-340 297.5,-376"/>
<text text-anchor="start" x="223" y="-359.5" font-family="Courier,monospace" font-size="11.00">«abstract»</text>
<text text-anchor="start" x="226.5" y="-348.5" font-family="Courier,monospace" font-size="11.00">CarmaLink</text>
</a>
</g>
<!-- \\CarmaLink\\CarmaLinkAPIException -->
<g id="node3" class="node"><title>\\CarmaLink\\CarmaLinkAPIException</title>
<a xlink:href="CarmaLinkAPI.html" xlink:title="CarmaLinkAPIException" target="_parent">
<polygon fill="none" stroke="black" points="333.123,-322 178.877,-322 178.877,-286 333.123,-286 333.123,-322"/>
<text text-anchor="middle" x="256" y="-299.6" font-family="Courier,monospace" font-size="11.00">CarmaLinkAPIException</text>
</a>
</g>
<!-- \\Exception -->
<g id="node10" class="node"><title>\\Exception</title>
<ellipse fill="none" stroke="black" cx="53" cy="-304" rx="52.7417" ry="18"/>
<text text-anchor="middle" x="53" y="-298.4" font-family="Times,serif" font-size="14.00" fill="gray">\Exception</text>
</g>
<!-- \\CarmaLink\\CarmaLinkAPIException&#45;&gt;\\Exception -->
<g id="edge3" class="edge"><title>\\CarmaLink\\CarmaLinkAPIException&#45;&gt;\\Exception</title>
<path fill="none" stroke="black" d="M178.724,-304C158.013,-304 135.842,-304 116.022,-304"/>
<polygon fill="none" stroke="black" points="115.893,-300.5 105.893,-304 115.893,-307.5 115.893,-300.5"/>
</g>
<!-- \\CarmaLink\\ConfigStatus -->
<g id="node4" class="node"><title>\\CarmaLink\\ConfigStatus</title>
<a xlink:href="CarmaLinkAPI.html" xlink:title="ConfigStatus" target="_parent">
<polygon fill="none" stroke="black" points="303.713,-268 208.287,-268 208.287,-232 303.713,-232 303.713,-268"/>
<text text-anchor="middle" x="256" y="-245.6" font-family="Courier,monospace" font-size="11.00">ConfigStatus</text>
</a>
</g>
<!-- \\CarmaLink\\BuzzerVolume -->
<g id="node5" class="node"><title>\\CarmaLink\\BuzzerVolume</title>
<a xlink:href="CarmaLinkAPI.html" xlink:title="BuzzerVolume" target="_parent">
<polygon fill="none" stroke="black" points="303.713,-214 208.287,-214 208.287,-178 303.713,-178 303.713,-214"/>
<text text-anchor="middle" x="256" y="-191.6" font-family="Courier,monospace" font-size="11.00">BuzzerVolume</text>
</a>
</g>
<!-- \\CarmaLink\\ConfigType -->
<g id="node6" class="node"><title>\\CarmaLink\\ConfigType</title>
<a xlink:href="CarmaLinkAPI.html" xlink:title="ConfigType" target="_parent">
<polygon fill="none" stroke="black" points="297.011,-160 214.989,-160 214.989,-124 297.011,-124 297.011,-160"/>
<text text-anchor="middle" x="256" y="-137.6" font-family="Courier,monospace" font-size="11.00">ConfigType</text>
</a>
</g>
<!-- \\CarmaLink\\Config -->
<g id="node7" class="node"><title>\\CarmaLink\\Config</title>
<a xlink:href="CarmaLinkAPI.html" xlink:title="Config" target="_parent">
<polygon fill="none" stroke="black" points="283.608,-106 228.392,-106 228.392,-70 283.608,-70 283.608,-106"/>
<text text-anchor="middle" x="256" y="-83.6" font-family="Courier,monospace" font-size="11.00">Config</text>
</a>
</g>
<!-- \\CarmaLink\\CarmaLinkAPI -->
<g id="node8" class="node"><title>\\CarmaLink\\CarmaLinkAPI</title>
<a xlink:href="CarmaLinkAPI.html" xlink:title="CarmaLinkAPI" target="_parent">
<polygon fill="none" stroke="black" points="303.713,-52 208.287,-52 208.287,-16 303.713,-16 303.713,-52"/>
<text text-anchor="middle" x="256" y="-29.6" font-family="Courier,monospace" font-size="11.00">CarmaLinkAPI</text>
</a>
</g>
</g>
</svg>
