<?xml version="1.0" encoding="UTF-8" standalone="no"?>
<!DOCTYPE svg PUBLIC "-//W3C//DTD SVG 1.1//EN"
 "http://www.w3.org/Graphics/SVG/1.1/DTD/svg11.dtd">
<!-- Generated by graphviz version 2.28.0 (20121003.1643)
 -->
<!-- Title: G Pages: 1 -->
<svg width="358pt" height="511pt"
 viewBox="0.00 0.00 358.00 511.00" xmlns="http://www.w3.org/2000/svg" xmlns:xlink="http://www.w3.org/1999/xlink">
<g id="graph1" class="graph" transform="scale(1 1) rotate(0) translate(4 507)">
<title>G</title>
<polygon fill="white" stroke="white" points="-4,5 -4,-507 355,-507 355,5 -4,5"/>
<g id="graph2" class="cluster"><title>cluster_CarmaLink</title>
<polyline fill="none" stroke="gray" points="29,-44 330,-44 "/>
<path fill="none" stroke="gray" d="M330,-44C336,-44 342,-50 342,-56"/>
<polyline fill="none" stroke="gray" points="342,-56 342,-483 "/>
<path fill="none" stroke="gray" d="M342,-483C342,-489 336,-495 330,-495"/>
<polyline fill="none" stroke="gray" points="330,-495 29,-495 "/>
<path fill="none" stroke="gray" d="M29,-495C23,-495 17,-489 17,-483"/>
<polyline fill="none" stroke="gray" points="17,-483 17,-56 "/>
<path fill="none" stroke="gray" d="M17,-56C17,-50 23,-44 29,-44"/>
<text text-anchor="middle" x="179.5" y="-480" font-family="Times,serif" font-size="11.00" fill="gray">CarmaLink</text>
</g>
<!-- \\CarmaLink\\CarmaLink -->
<g id="node2" class="node"><title>\\CarmaLink\\CarmaLink</title>
<a xlink:href="CarmaLinkAPI.html" xlink:title="«abstract»&lt;br/&gt;CarmaLink" target="_parent">
<polygon fill="none" stroke="black" points="297.5,-466 214.5,-466 214.5,-430 297.5,-430 297.5,-466"/>
<text text-anchor="start" x="223" y="-449.5" font-family="Courier,monospace" font-size="11.00">«abstract»</text>
<text text-anchor="start" x="226.5" y="-438.5" font-family="Courier,monospace" font-size="11.00">CarmaLink</text>
</a>
</g>
<!-- \\CarmaLink\\CarmaLinkAPIException -->
<g id="node3" class="node"><title>\\CarmaLink\\CarmaLinkAPIException</title>
<a xlink:href="CarmaLinkAPI.html" xlink:title="CarmaLinkAPIException" target="_parent">
<polygon fill="none" stroke="black" points="333.123,-142 178.877,-142 178.877,-106 333.123,-106 333.123,-142"/>
<text text-anchor="middle" x="256" y="-119.6" font-family="Courier,monospace" font-size="11.00">CarmaLinkAPIException</text>
</a>
</g>
<!-- \\Exception -->
<g id="node12" class="node"><title>\\Exception</title>
<ellipse fill="none" stroke="black" cx="53" cy="-18" rx="52.7417" ry="18"/>
<text text-anchor="middle" x="53" y="-12.4" font-family="Times,serif" font-size="14.00" fill="gray">\Exception</text>
</g>
<!-- \\CarmaLink\\CarmaLinkAPIException&#45;&gt;\\Exception -->
<g id="edge3" class="edge"><title>\\CarmaLink\\CarmaLinkAPIException&#45;&gt;\\Exception</title>
<path fill="none" stroke="black" d="M196.902,-105.989C190.386,-103.28 183.956,-100.281 178,-97 142.25,-77.3094 141.112,-60.8065 106,-40 103.51,-38.5243 100.902,-37.0962 98.2368,-35.7246"/>
<polygon fill="none" stroke="black" points="99.5709,-32.4822 89.0433,-31.2905 96.53,-38.7872 99.5709,-32.4822"/>
</g>
<!-- \\CarmaLink\\ConfigStatus -->
<g id="node4" class="node"><title>\\CarmaLink\\ConfigStatus</title>
<a xlink:href="CarmaLinkAPI.html" xlink:title="ConfigStatus" target="_parent">
<polygon fill="none" stroke="black" points="303.713,-358 208.287,-358 208.287,-322 303.713,-322 303.713,-358"/>
<text text-anchor="middle" x="256" y="-335.6" font-family="Courier,monospace" font-size="11.00">ConfigStatus</text>
</a>
</g>
<!-- \\CarmaLink\\BuzzerVolume -->
<g id="node5" class="node"><title>\\CarmaLink\\BuzzerVolume</title>
<a xlink:href="CarmaLinkAPI.html" xlink:title="BuzzerVolume" target="_parent">
<polygon fill="none" stroke="black" points="303.713,-304 208.287,-304 208.287,-268 303.713,-268 303.713,-304"/>
<text text-anchor="middle" x="256" y="-281.6" font-family="Courier,monospace" font-size="11.00">BuzzerVolume</text>
</a>
</g>
<!-- \\CarmaLink\\FuelType -->
<g id="node6" class="node"><title>\\CarmaLink\\FuelType</title>
<a xlink:href="CarmaLinkAPI.html" xlink:title="FuelType" target="_parent">
<polygon fill="none" stroke="black" points="290.309,-250 221.691,-250 221.691,-214 290.309,-214 290.309,-250"/>
<text text-anchor="middle" x="256" y="-227.6" font-family="Courier,monospace" font-size="11.00">FuelType</text>
</a>
</g>
<!-- \\CarmaLink\\ConfigType -->
<g id="node7" class="node"><title>\\CarmaLink\\ConfigType</title>
<a xlink:href="CarmaLinkAPI.html" xlink:title="ConfigType" target="_parent">
<polygon fill="none" stroke="black" points="297.011,-196 214.989,-196 214.989,-160 297.011,-160 297.011,-196"/>
<text text-anchor="middle" x="256" y="-173.6" font-family="Courier,monospace" font-size="11.00">ConfigType</text>
</a>
</g>
<!-- \\CarmaLink\\GeneralConfig -->
<g id="node8" class="node"><title>\\CarmaLink\\GeneralConfig</title>
<a xlink:href="CarmaLinkAPI.html" xlink:title="GeneralConfig" target="_parent">
<polygon fill="none" stroke="black" points="306.814,-412 205.186,-412 205.186,-376 306.814,-376 306.814,-412"/>
<text text-anchor="middle" x="256" y="-389.6" font-family="Courier,monospace" font-size="11.00">GeneralConfig</text>
</a>
</g>
<!-- \\CarmaLink\\Config -->
<g id="node9" class="node"><title>\\CarmaLink\\Config</title>
<a xlink:href="CarmaLinkAPI.html" xlink:title="Config" target="_parent">
<polygon fill="none" stroke="black" points="80.6078,-412 25.3922,-412 25.3922,-376 80.6078,-376 80.6078,-412"/>
<text text-anchor="middle" x="53" y="-389.6" font-family="Courier,monospace" font-size="11.00">Config</text>
</a>
</g>
<!-- \\CarmaLink\\GeneralConfig&#45;&gt;\\CarmaLink\\Config -->
<g id="edge5" class="edge"><title>\\CarmaLink\\GeneralConfig&#45;&gt;\\CarmaLink\\Config</title>
<path fill="none" stroke="black" d="M205.056,-394C169.749,-394 123.186,-394 91.1386,-394"/>
<polygon fill="none" stroke="black" points="90.8643,-390.5 80.8642,-394 90.8642,-397.5 90.8643,-390.5"/>
</g>
<!-- \\CarmaLink\\CarmaLinkAPI -->
<g id="node10" class="node"><title>\\CarmaLink\\CarmaLinkAPI</title>
<a xlink:href="CarmaLinkAPI.html" xlink:title="CarmaLinkAPI" target="_parent">
<polygon fill="none" stroke="black" points="303.713,-88 208.287,-88 208.287,-52 303.713,-52 303.713,-88"/>
<text text-anchor="middle" x="256" y="-65.6" font-family="Courier,monospace" font-size="11.00">CarmaLinkAPI</text>
</a>
</g>
</g>
</svg>
